<svg width="18" height="17" viewBox="0 0 18 17" fill="none" xmlns="http://www.w3.org/2000/svg">
<path fill-rule="evenodd" clip-rule="evenodd" d="M8.54844 5.60205C9.95275 5.60205 10.8511 6.6374 10.8511 8.2767C10.8511 9.91601 9.94242 10.9609 8.52779 10.9609C7.17512 10.9609 6.34906 9.94477 6.34906 8.2767C6.34906 6.59905 7.16479 5.60205 8.54844 5.60205ZM0.380859 8.22885C0.380859 13.3864 4.0465 16.2336 9.08547 16.2336C10.4175 16.2336 12.1037 15.9864 12.5652 15.7639C13.0268 15.5414 12.6894 14.4398 12.5652 14.556C12.4411 14.6722 10.4898 15.0161 9.10612 15.0161C4.95517 15.0161 1.83679 12.6291 1.83679 8.28637C1.83679 4.27918 4.75898 1.44155 8.77569 1.44155C12.8853 1.44155 15.7352 3.79026 15.7352 7.27019C15.7352 9.75312 14.8266 11.1528 13.5978 11.1528C12.8027 11.1528 12.431 10.7118 12.431 10.0886L12.3514 4.5484H10.7922L10.7929 5.20988C10.5438 4.59923 9.39524 4.27918 8.29038 4.27918C6.1736 4.27918 4.69702 5.9089 4.69702 8.23844C4.69702 10.6734 6.14263 12.3127 8.29038 12.3127C9.50882 12.3127 10.4691 11.7567 10.9131 10.7885H10.9957C11.1196 11.7471 12.1316 12.399 13.3087 12.399C15.7249 12.399 17.1912 10.3571 17.1912 7.28936C17.1912 3.06168 13.7114 0.233643 8.90993 0.233643C3.89161 0.233643 0.380859 3.44515 0.380859 8.22885Z" fill="#606060"/>
</svg>
