<svg width="16" height="17" viewBox="0 0 16 17" fill="none" xmlns="http://www.w3.org/2000/svg">
<path opacity="0.6" fill-rule="evenodd" clip-rule="evenodd" d="M13.696 7.9605C13.696 5.78236 11.8795 3.53209 9.76759 2.70464C9.55548 1.75127 9.12413 1.03711 8.12451 1.03711C7.12489 1.03711 6.69354 1.75127 6.48143 2.70484C4.36951 3.53229 2.55304 5.78256 2.55304 7.9607V12.3869L1.12451 13.8841C1.12451 14.2111 1.3896 14.476 1.71642 14.476H6.68417C6.68722 15.7839 6.8162 16.115 8.12451 16.115C9.43282 16.115 9.76555 15.7839 9.76861 14.476H14.5326C14.8596 14.476 15.1245 14.2109 15.1245 13.8841L13.696 12.3867V7.9605Z" stroke="white" stroke-width="1.5"/>
</svg>
