<svg width="9" height="11" viewBox="0 0 9 11" fill="none" xmlns="http://www.w3.org/2000/svg">
<path opacity="0.6" d="M5.475 4.4H3.6225L3.135 6.845H4.9875L5.475 4.4ZM8.31 3.4175L8.2125 3.98C8.1875 4.125 8.1275 4.2325 8.0325 4.3025C7.9425 4.3675 7.8025 4.4 7.6125 4.4H6.5775L6.09 6.845H7.4325C7.5775 6.845 7.68 6.8875 7.74 6.9725C7.805 7.0525 7.8225 7.195 7.7925 7.4L7.725 7.8275H5.9475L5.3175 11H4.71C4.645 11 4.585 10.985 4.53 10.955C4.475 10.925 4.4275 10.885 4.3875 10.835C4.3525 10.785 4.3275 10.725 4.3125 10.655C4.2975 10.585 4.2975 10.5075 4.3125 10.4225L4.845 7.8275H2.9925L2.46 10.49C2.43 10.675 2.3575 10.8075 2.2425 10.8875C2.1275 10.9625 1.9975 11 1.8525 11H1.2525L1.89 7.8275H0.795C0.655 7.8275 0.5525 7.7875 0.4875 7.7075C0.4275 7.6225 0.4125 7.4775 0.4425 7.2725L0.5025 6.845H2.0325L2.52 4.4H0.78L0.8775 3.845C0.9025 3.7 0.96 3.5925 1.05 3.5225C1.145 3.4525 1.2875 3.4175 1.4775 3.4175H2.6625L3.2025 0.732499C3.2325 0.5825 3.3 0.465 3.405 0.38C3.515 0.295 3.645 0.252499 3.795 0.252499H4.395L3.765 3.4175H5.6175L6.2475 0.252499H6.84C6.985 0.252499 7.0975 0.299999 7.1775 0.395C7.2625 0.489999 7.2925 0.609999 7.2675 0.755L6.72 3.4175H8.31Z" fill="white"/>
</svg>
