<svg width="16" height="16" viewBox="0 0 16 16" fill="none" xmlns="http://www.w3.org/2000/svg">
<path fill-rule="evenodd" clip-rule="evenodd" d="M8.33984 0.32251C4.20453 0.32251 0.839844 3.68719 0.839844 7.82251C0.839844 11.9578 4.20453 15.3225 8.33984 15.3225C12.4752 15.3225 15.8398 11.9578 15.8398 7.82251C15.8398 3.68719 12.4752 0.32251 8.33984 0.32251ZM7.40242 5.01003C7.40242 4.49253 7.82242 4.07253 8.33992 4.07253C8.85789 4.07253 9.27742 4.49206 9.27742 5.01003C9.27742 5.52799 8.85742 5.94753 8.33992 5.94753C7.82242 5.94753 7.40242 5.52753 7.40242 5.01003ZM7.40242 7.82259C7.40242 7.30462 7.82242 6.88509 8.33992 6.88509C8.85789 6.88509 9.27742 7.30509 9.27742 7.82259V10.6351C9.27742 11.1526 8.85742 11.5726 8.33992 11.5726C7.82242 11.5726 7.40242 11.1526 7.40242 10.6351V7.82259ZM2.24603 7.82244C2.24603 11.1824 4.97931 13.9162 8.33978 13.9162C11.6998 13.9162 14.4335 11.1824 14.4335 7.82244C14.4335 4.46244 11.6998 1.72869 8.33978 1.72869C4.97931 1.72869 2.24603 4.46244 2.24603 7.82244Z" fill="#606060"/>
</svg>
