<svg width="4" height="17" viewBox="0 0 4 17" fill="none" xmlns="http://www.w3.org/2000/svg">
<path fill-rule="evenodd" clip-rule="evenodd" d="M1.72266 3.84009C2.55108 3.84009 3.22266 3.16851 3.22266 2.34009C3.22266 1.51166 2.55108 0.840088 1.72266 0.840088C0.894229 0.840088 0.222656 1.51166 0.222656 2.34009C0.222656 3.16851 0.894229 3.84009 1.72266 3.84009Z" fill="#606060"/>
<path fill-rule="evenodd" clip-rule="evenodd" d="M1.72266 10.3401C2.55108 10.3401 3.22266 9.66851 3.22266 8.84009C3.22266 8.01166 2.55108 7.34009 1.72266 7.34009C0.894229 7.34009 0.222656 8.01166 0.222656 8.84009C0.222656 9.66851 0.894229 10.3401 1.72266 10.3401Z" fill="#606060"/>
<path fill-rule="evenodd" clip-rule="evenodd" d="M1.72266 16.8401C2.55108 16.8401 3.22266 16.1685 3.22266 15.3401C3.22266 14.5117 2.55108 13.8401 1.72266 13.8401C0.894229 13.8401 0.222656 14.5117 0.222656 15.3401C0.222656 16.1685 0.894229 16.8401 1.72266 16.8401Z" fill="#606060"/>
</svg>
