<svg width="17" height="17" viewBox="0 0 17 17" fill="none" xmlns="http://www.w3.org/2000/svg">
<path fill-rule="evenodd" clip-rule="evenodd" d="M14.9387 13.6553C14.6069 14.0093 14.2086 14.3412 13.8989 14.7173C13.4121 15.2483 12.8147 15.4475 12.1289 15.4032C11.1554 15.3368 10.2483 15.005 9.34113 14.5846C7.37201 13.6332 5.66839 12.3057 4.25239 10.6021C3.21252 9.34097 2.34964 8.01348 1.77439 6.46473C1.5089 5.71248 1.30977 4.96023 1.37615 4.18586C1.4204 3.69911 1.61952 3.27874 1.97352 2.92474C2.34964 2.54861 2.72577 2.17249 3.12402 1.77424C3.63289 1.28749 4.27451 1.28749 4.76126 1.77424C5.07101 2.06187 5.38076 2.39374 5.69051 2.70349C5.97814 2.99111 6.28788 3.30086 6.59763 3.61061C7.12863 4.14161 7.12863 4.76111 6.59763 5.29211C6.22151 5.66823 5.84539 6.04436 5.44714 6.42048C5.33651 6.53111 5.33651 6.59748 5.38076 6.70811C5.62414 7.3276 6.00026 7.8586 6.39851 8.36748C7.21713 9.38522 8.16851 10.2702 9.25263 10.9782C9.496 11.1331 9.7615 11.2216 10.0049 11.3765C10.1376 11.4428 10.2261 11.4207 10.3146 11.3101C10.6907 10.934 11.0669 10.5578 11.4651 10.1596C11.974 9.65072 12.6156 9.65072 13.1024 10.1596C13.7219 10.7791 14.3414 11.3986 14.9387 11.996C15.4476 12.4827 15.4476 13.1243 14.9387 13.6553V13.6553Z" stroke="#606060" stroke-width="1.5"/>
</svg>
