<svg width="18" height="18" viewBox="0 0 18 18" fill="none" xmlns="http://www.w3.org/2000/svg">
<path fill-rule="evenodd" clip-rule="evenodd" d="M10.4235 2.52253V2.52253C10.7326 3.39076 11.7241 3.80155 12.5565 3.40576V3.40576C13.8789 2.7775 15.2579 4.1565 14.6288 5.47885V5.47885C14.2338 6.31125 14.6446 7.30279 15.5129 7.61192V7.61192C16.8919 8.10186 16.8919 10.0525 15.5129 10.5432V10.5432C14.6446 10.8515 14.2338 11.8439 14.6288 12.6763V12.6763C15.2579 13.9978 13.8789 15.3768 12.5565 14.7486V14.7486C11.7241 14.3528 10.7326 14.7636 10.4235 15.6318V15.6318C9.93685 16.7617 8.03208 16.7858 7.49215 15.6318V15.6318C7.18385 14.7636 6.19147 14.3528 5.35907 14.7486V14.7486C4.03756 15.3768 2.65856 13.9978 3.28682 12.6763V12.6763C3.6826 11.8439 3.27182 10.8515 2.40276 10.5432V10.5432C1.25623 10.0008 1.26956 8.0477 2.40276 7.61192V7.61192C3.27182 7.30279 3.6826 6.31125 3.28682 5.47885C2.65856 4.1565 4.03756 2.7775 5.35907 3.40576V3.40576C6.19147 3.80155 7.18385 3.39076 7.49215 2.52253V2.52253C7.98292 1.14353 9.93269 1.14353 10.4235 2.52253V2.52253V2.52253Z" stroke="#606060" stroke-width="1.5"/>
<path fill-rule="evenodd" clip-rule="evenodd" d="M11.5477 8.98939C11.5477 7.61039 10.4295 6.49219 9.05049 6.49219C7.67066 6.49219 6.55246 7.61039 6.55246 8.98939C6.55246 10.3684 7.67066 11.4866 9.05049 11.4866C10.4295 11.4866 11.5477 10.3684 11.5477 8.98939V8.98939V8.98939Z" stroke="#606060" stroke-width="1.5"/>
</svg>
