<svg width="19" height="18" viewBox="0 0 19 18" fill="none" xmlns="http://www.w3.org/2000/svg">
<path fill-rule="evenodd" clip-rule="evenodd" d="M9.19191 13.6469C9.19191 13.6469 5.2202 17.0236 4.19117 16.276C3.16214 15.5283 5.14623 10.7076 5.14623 10.7076C5.14623 10.7076 0.718363 7.9402 1.10054 6.76398C1.48271 5.58777 6.69154 5.95156 6.69154 5.95156C6.69154 5.95156 7.94173 0.885254 9.19191 0.885254C10.4421 0.885254 11.6923 5.95156 11.6923 5.95156C11.6923 5.95156 16.8929 5.56263 17.2833 6.76398C17.6736 7.96533 13.2376 10.7076 13.2376 10.7076C13.2376 10.7076 15.1851 15.5549 14.1927 16.276C13.2002 16.997 9.19191 13.6469 9.19191 13.6469Z" stroke="#606060" stroke-width="1.5"/>
</svg>
